<mxfile host="app.diagrams.net" agent="Mozilla/5.0 (Windows NT 10.0; Win64; x64) AppleWebKit/537.36 (KHTML, like Gecko) Chrome/136.0.0.0 Safari/537.36" version="26.2.14">
  <diagram id="5702xV8WYfzEZSn0zTRl" name="Page-1">
    <mxGraphModel grid="1" page="1" gridSize="10" guides="1" tooltips="1" connect="1" arrows="1" fold="1" pageScale="1" pageWidth="827" pageHeight="1169" math="0" shadow="0">
      <root>
        <mxCell id="0" />
        <mxCell id="1" parent="0" />
        <mxCell id="59Jmw2dpT3aq7HsNmHRe-66" value="" style="edgeStyle=orthogonalEdgeStyle;rounded=1;orthogonalLoop=1;jettySize=auto;html=1;entryX=0.5;entryY=0;entryDx=0;entryDy=0;" edge="1" parent="1" source="59Jmw2dpT3aq7HsNmHRe-69" target="59Jmw2dpT3aq7HsNmHRe-70">
          <mxGeometry relative="1" as="geometry">
            <mxPoint x="32.039999999999964" y="620" as="targetPoint" />
          </mxGeometry>
        </mxCell>
        <mxCell id="59Jmw2dpT3aq7HsNmHRe-67" value="" style="edgeStyle=orthogonalEdgeStyle;rounded=1;orthogonalLoop=1;jettySize=auto;html=1;entryX=0.5;entryY=0;entryDx=0;entryDy=0;" edge="1" parent="1" source="59Jmw2dpT3aq7HsNmHRe-69" target="59Jmw2dpT3aq7HsNmHRe-72">
          <mxGeometry relative="1" as="geometry">
            <mxPoint x="312.0400000000002" y="620" as="targetPoint" />
          </mxGeometry>
        </mxCell>
        <mxCell id="NkByPIN7X-YJsqj7LBNm-8" value="" style="edgeStyle=orthogonalEdgeStyle;rounded=0;orthogonalLoop=1;jettySize=auto;html=1;" edge="1" parent="1" source="59Jmw2dpT3aq7HsNmHRe-69" target="59Jmw2dpT3aq7HsNmHRe-71">
          <mxGeometry relative="1" as="geometry" />
        </mxCell>
        <mxCell id="59Jmw2dpT3aq7HsNmHRe-69" value="&lt;span id=&quot;docs-internal-guid-3ccb9f6a-7fff-7f46-d8be-888557d7b7c7&quot;&gt;&lt;p dir=&quot;ltr&quot; style=&quot;line-height: 1.08 ; margin-top: 0pt ; margin-bottom: 4.55pt&quot;&gt;&lt;span&gt;&lt;br&gt;&lt;/span&gt;&lt;/p&gt;&lt;p dir=&quot;ltr&quot; style=&quot;line-height: 1.08 ; margin-top: 0pt ; margin-bottom: 4.55pt&quot;&gt;&lt;span&gt;Knowledge of the System&lt;/span&gt;&lt;br&gt;&lt;/p&gt;&lt;div&gt;&lt;span&gt;&lt;br&gt;&lt;/span&gt;&lt;/div&gt;&lt;/span&gt;" style="rounded=1;whiteSpace=wrap;html=1;fillColor=#dae8fc;strokeColor=#6c8ebf;fontStyle=1;strokeWidth=2;" vertex="1" parent="1">
          <mxGeometry x="82" y="550" width="110" height="40" as="geometry" />
        </mxCell>
        <mxCell id="59Jmw2dpT3aq7HsNmHRe-70" value="&lt;h1&gt;&lt;font style=&quot;font-size: 12px&quot;&gt;Black box&lt;/font&gt;&lt;/h1&gt;&lt;p&gt;&lt;font style=&quot;font-size: 10px&quot;&gt;Without additional tools and knowledge about how system works.&lt;/font&gt;&lt;/p&gt;" style="text;html=1;strokeColor=#666666;fillColor=#f5f5f5;spacing=5;spacingTop=-20;whiteSpace=wrap;overflow=hidden;rounded=1;fontColor=#333333;" vertex="1" parent="1">
          <mxGeometry x="-130" y="630" width="157" height="100" as="geometry" />
        </mxCell>
        <mxCell id="59Jmw2dpT3aq7HsNmHRe-71" value="&lt;h1&gt;&lt;font style=&quot;font-size: 12px&quot;&gt;Grey box&lt;/font&gt;&lt;/h1&gt;&lt;p&gt;&lt;font style=&quot;font-size: 10px&quot;&gt;Partly knowledge about how system works with some additional tools.&lt;/font&gt;&lt;/p&gt;" style="text;html=1;strokeColor=#666666;fillColor=#f5f5f5;spacing=5;spacingTop=-20;whiteSpace=wrap;overflow=hidden;rounded=1;fontColor=#333333;" vertex="1" parent="1">
          <mxGeometry x="57" y="630" width="160" height="100" as="geometry" />
        </mxCell>
        <mxCell id="59Jmw2dpT3aq7HsNmHRe-72" value="&lt;h1&gt;&lt;font style=&quot;font-size: 12px&quot;&gt;White box&lt;/font&gt;&lt;/h1&gt;&lt;p&gt;&lt;font style=&quot;font-size: 10px&quot;&gt;Testing with knowledge about how system work, testing on the code level.&lt;/font&gt;&lt;/p&gt;" style="text;html=1;strokeColor=#666666;fillColor=#f5f5f5;spacing=5;spacingTop=-20;whiteSpace=wrap;overflow=hidden;rounded=1;fontColor=#333333;" vertex="1" parent="1">
          <mxGeometry x="247" y="630" width="153" height="100" as="geometry" />
        </mxCell>
        <mxCell id="59Jmw2dpT3aq7HsNmHRe-73" style="edgeStyle=orthogonalEdgeStyle;rounded=1;orthogonalLoop=1;jettySize=auto;html=1;exitX=0.5;exitY=0;exitDx=0;exitDy=0;entryX=0;entryY=0.5;entryDx=0;entryDy=0;fontSize=10;" edge="1" parent="1" source="59Jmw2dpT3aq7HsNmHRe-77" target="59Jmw2dpT3aq7HsNmHRe-78">
          <mxGeometry relative="1" as="geometry" />
        </mxCell>
        <mxCell id="59Jmw2dpT3aq7HsNmHRe-74" style="edgeStyle=orthogonalEdgeStyle;rounded=1;orthogonalLoop=1;jettySize=auto;html=1;exitX=0.75;exitY=0;exitDx=0;exitDy=0;entryX=0;entryY=0.25;entryDx=0;entryDy=0;fontSize=10;" edge="1" parent="1" source="59Jmw2dpT3aq7HsNmHRe-77" target="59Jmw2dpT3aq7HsNmHRe-79">
          <mxGeometry relative="1" as="geometry" />
        </mxCell>
        <mxCell id="59Jmw2dpT3aq7HsNmHRe-75" style="edgeStyle=orthogonalEdgeStyle;rounded=1;orthogonalLoop=1;jettySize=auto;html=1;exitX=0.75;exitY=1;exitDx=0;exitDy=0;entryX=0;entryY=0.25;entryDx=0;entryDy=0;fontSize=10;" edge="1" parent="1" source="59Jmw2dpT3aq7HsNmHRe-77" target="59Jmw2dpT3aq7HsNmHRe-80">
          <mxGeometry relative="1" as="geometry" />
        </mxCell>
        <mxCell id="59Jmw2dpT3aq7HsNmHRe-76" style="edgeStyle=orthogonalEdgeStyle;rounded=1;orthogonalLoop=1;jettySize=auto;html=1;exitX=0.5;exitY=1;exitDx=0;exitDy=0;entryX=0;entryY=0.5;entryDx=0;entryDy=0;fontSize=10;" edge="1" parent="1" source="59Jmw2dpT3aq7HsNmHRe-77" target="59Jmw2dpT3aq7HsNmHRe-81">
          <mxGeometry relative="1" as="geometry" />
        </mxCell>
        <mxCell id="59Jmw2dpT3aq7HsNmHRe-77" value="&lt;span id=&quot;docs-internal-guid-3ccb9f6a-7fff-7f46-d8be-888557d7b7c7&quot;&gt;&lt;p dir=&quot;ltr&quot; style=&quot;line-height: 1.08 ; margin-top: 0pt ; margin-bottom: 4.55pt&quot;&gt;Levels of the Testing&lt;/p&gt;&lt;/span&gt;" style="rounded=1;whiteSpace=wrap;html=1;fillColor=#dae8fc;strokeColor=#6c8ebf;fontStyle=1;strokeWidth=2;" vertex="1" parent="1">
          <mxGeometry x="408" y="249" width="110" height="40" as="geometry" />
        </mxCell>
        <mxCell id="59Jmw2dpT3aq7HsNmHRe-78" value="&lt;p style=&quot;line-height: 0&quot;&gt;&lt;/p&gt;&lt;h6&gt;&lt;font style=&quot;font-size: 12px&quot;&gt;Unit (Component)&lt;/font&gt;&lt;/h6&gt;&lt;p&gt;&lt;font style=&quot;font-size: 10px ; line-height: 0.8&quot;&gt;Testing of separate small modules on the code level. Usually by developers.&lt;/font&gt;&lt;/p&gt;&lt;p&gt;&lt;/p&gt;" style="text;html=1;strokeColor=#666666;fillColor=#f5f5f5;spacing=5;spacingTop=-20;whiteSpace=wrap;overflow=hidden;rounded=1;fontColor=#333333;" vertex="1" parent="1">
          <mxGeometry x="568" y="69" width="172" height="100" as="geometry" />
        </mxCell>
        <mxCell id="59Jmw2dpT3aq7HsNmHRe-79" value="&lt;h6&gt;&lt;font style=&quot;font-size: 12px&quot;&gt;Integration&lt;/font&gt;&lt;/h6&gt;&lt;p&gt;&lt;span style=&quot;font-size: 10px;&quot;&gt;Check how individual modules interact with each other&lt;/span&gt;&lt;/p&gt;" style="text;html=1;strokeColor=#666666;fillColor=#f5f5f5;spacing=5;spacingTop=-20;whiteSpace=wrap;overflow=hidden;rounded=1;fontColor=#333333;" vertex="1" parent="1">
          <mxGeometry x="568" y="189" width="172" height="100" as="geometry" />
        </mxCell>
        <mxCell id="59Jmw2dpT3aq7HsNmHRe-80" value="&lt;h6&gt;&lt;span style=&quot;font-size: 12px;&quot;&gt;System&lt;/span&gt;&lt;/h6&gt;&lt;p&gt;&lt;font style=&quot;font-size: 10px;&quot;&gt;Test the software system as a whole. Verify that the product meets functional and technical requirements and general quality standards.&lt;/font&gt;&lt;/p&gt;" style="text;html=1;strokeColor=#666666;fillColor=#f5f5f5;spacing=5;spacingTop=-20;whiteSpace=wrap;overflow=hidden;rounded=1;fontColor=#333333;" vertex="1" parent="1">
          <mxGeometry x="568" y="309" width="182" height="100" as="geometry" />
        </mxCell>
        <mxCell id="NkByPIN7X-YJsqj7LBNm-11" value="" style="edgeStyle=orthogonalEdgeStyle;rounded=0;orthogonalLoop=1;jettySize=auto;html=1;" edge="1" parent="1" source="59Jmw2dpT3aq7HsNmHRe-81" target="NkByPIN7X-YJsqj7LBNm-10">
          <mxGeometry relative="1" as="geometry">
            <Array as="points">
              <mxPoint x="770" y="479" />
              <mxPoint x="770" y="420" />
            </Array>
          </mxGeometry>
        </mxCell>
        <mxCell id="NkByPIN7X-YJsqj7LBNm-17" value="" style="edgeStyle=orthogonalEdgeStyle;rounded=0;orthogonalLoop=1;jettySize=auto;html=1;" edge="1" parent="1" source="59Jmw2dpT3aq7HsNmHRe-81" target="NkByPIN7X-YJsqj7LBNm-15">
          <mxGeometry relative="1" as="geometry" />
        </mxCell>
        <mxCell id="59Jmw2dpT3aq7HsNmHRe-81" value="&lt;h6&gt;&lt;span style=&quot;font-size: 12px;&quot;&gt;User Acceptance testing(UAT)&lt;/span&gt;&lt;/h6&gt;&lt;p&gt;&lt;span style=&quot;font-size: 10px;&quot;&gt;Checks for compliance with end-user requirements and accuracy&lt;/span&gt;&lt;/p&gt;" style="text;html=1;strokeColor=#666666;fillColor=#f5f5f5;spacing=5;spacingTop=-20;whiteSpace=wrap;overflow=hidden;rounded=1;fontColor=#333333;" vertex="1" parent="1">
          <mxGeometry x="568" y="429" width="182" height="100" as="geometry" />
        </mxCell>
        <mxCell id="59Jmw2dpT3aq7HsNmHRe-82" value="" style="edgeStyle=orthogonalEdgeStyle;rounded=0;orthogonalLoop=1;jettySize=auto;html=1;" edge="1" parent="1">
          <mxGeometry relative="1" as="geometry">
            <mxPoint x="197" y="1040" as="sourcePoint" />
            <mxPoint x="247" y="1040" as="targetPoint" />
          </mxGeometry>
        </mxCell>
        <mxCell id="59Jmw2dpT3aq7HsNmHRe-83" style="edgeStyle=orthogonalEdgeStyle;rounded=1;orthogonalLoop=1;jettySize=auto;html=1;exitX=0.5;exitY=0;exitDx=0;exitDy=0;entryX=0;entryY=0.5;entryDx=0;entryDy=0;fontSize=10;" edge="1" parent="1" source="59Jmw2dpT3aq7HsNmHRe-87" target="59Jmw2dpT3aq7HsNmHRe-91">
          <mxGeometry relative="1" as="geometry">
            <mxPoint x="570" y="680" as="targetPoint" />
          </mxGeometry>
        </mxCell>
        <mxCell id="59Jmw2dpT3aq7HsNmHRe-84" style="edgeStyle=orthogonalEdgeStyle;rounded=1;orthogonalLoop=1;jettySize=auto;html=1;exitX=0.75;exitY=0;exitDx=0;exitDy=0;entryX=0;entryY=0.25;entryDx=0;entryDy=0;fontSize=10;" edge="1" parent="1" source="59Jmw2dpT3aq7HsNmHRe-87" target="59Jmw2dpT3aq7HsNmHRe-88">
          <mxGeometry relative="1" as="geometry" />
        </mxCell>
        <mxCell id="59Jmw2dpT3aq7HsNmHRe-85" style="edgeStyle=orthogonalEdgeStyle;rounded=1;orthogonalLoop=1;jettySize=auto;html=1;exitX=0.75;exitY=1;exitDx=0;exitDy=0;entryX=0;entryY=0.25;entryDx=0;entryDy=0;fontSize=10;" edge="1" parent="1" source="59Jmw2dpT3aq7HsNmHRe-87" target="59Jmw2dpT3aq7HsNmHRe-89">
          <mxGeometry relative="1" as="geometry" />
        </mxCell>
        <mxCell id="59Jmw2dpT3aq7HsNmHRe-86" style="edgeStyle=orthogonalEdgeStyle;rounded=1;orthogonalLoop=1;jettySize=auto;html=1;exitX=0.5;exitY=1;exitDx=0;exitDy=0;entryX=0;entryY=0.5;entryDx=0;entryDy=0;fontSize=10;" edge="1" parent="1" source="59Jmw2dpT3aq7HsNmHRe-87" target="59Jmw2dpT3aq7HsNmHRe-90">
          <mxGeometry relative="1" as="geometry" />
        </mxCell>
        <mxCell id="59Jmw2dpT3aq7HsNmHRe-87" value="&lt;span id=&quot;docs-internal-guid-3ccb9f6a-7fff-7f46-d8be-888557d7b7c7&quot;&gt;&lt;div style=&quot;border-color: var(--border-color);&quot;&gt;Related to Changes&lt;/div&gt;&lt;/span&gt;" style="rounded=1;whiteSpace=wrap;html=1;fillColor=#dae8fc;strokeColor=#6c8ebf;fontStyle=1;strokeWidth=2;" vertex="1" parent="1">
          <mxGeometry x="410" y="810" width="110" height="40" as="geometry" />
        </mxCell>
        <mxCell id="59Jmw2dpT3aq7HsNmHRe-88" value="&lt;h6&gt;&lt;span style=&quot;font-size: 12px;&quot;&gt;Sanity Testing&lt;/span&gt;&lt;/h6&gt;&lt;h6&gt;&lt;p style=&quot;font-size: 12px; font-weight: 400;&quot;&gt;&lt;font style=&quot;font-size: 10px;&quot;&gt;Quick check of specific changes or fixes after the update.&lt;/font&gt;&lt;/p&gt;&lt;/h6&gt;" style="text;html=1;strokeColor=#666666;fillColor=#f5f5f5;spacing=5;spacingTop=-20;whiteSpace=wrap;overflow=hidden;rounded=1;fontColor=#333333;" vertex="1" parent="1">
          <mxGeometry x="570" y="750" width="120" height="100" as="geometry" />
        </mxCell>
        <mxCell id="59Jmw2dpT3aq7HsNmHRe-89" value="&lt;h6&gt;&lt;span style=&quot;font-size: 12px;&quot;&gt;Regression Testing&lt;/span&gt;&lt;/h6&gt;&lt;h6&gt;&lt;p style=&quot;font-size: 12px; font-weight: 400;&quot;&gt;&lt;font style=&quot;font-size: 10px;&quot;&gt;Check that the new changes have not violated the already working functionality.&lt;/font&gt;&lt;/p&gt;&lt;/h6&gt;" style="text;html=1;strokeColor=#666666;fillColor=#f5f5f5;spacing=5;spacingTop=-20;whiteSpace=wrap;overflow=hidden;rounded=1;fontColor=#333333;" vertex="1" parent="1">
          <mxGeometry x="570" y="870" width="120" height="100" as="geometry" />
        </mxCell>
        <mxCell id="59Jmw2dpT3aq7HsNmHRe-90" value="&lt;h6&gt;&lt;span style=&quot;font-size: 12px;&quot;&gt;Retesting&amp;nbsp;&lt;/span&gt;&lt;/h6&gt;&lt;h6&gt;&lt;p style=&quot;font-size: 12px; font-weight: 400;&quot;&gt;&lt;font style=&quot;font-size: 10px;&quot;&gt;Re-checking the corrected bug.&lt;/font&gt;&lt;/p&gt;&lt;/h6&gt;" style="text;html=1;strokeColor=#666666;fillColor=#f5f5f5;spacing=5;spacingTop=-20;whiteSpace=wrap;overflow=hidden;rounded=1;fontColor=#333333;" vertex="1" parent="1">
          <mxGeometry x="570" y="990" width="120" height="100" as="geometry" />
        </mxCell>
        <mxCell id="59Jmw2dpT3aq7HsNmHRe-91" value="&lt;h6&gt;&lt;span style=&quot;font-size: 12px;&quot;&gt;Smoke Testing&lt;/span&gt;&lt;/h6&gt;&lt;p&gt;&lt;font style=&quot;font-size: 10px;&quot;&gt;Basic check of crucial product functions&lt;/font&gt;&lt;/p&gt;" style="text;html=1;strokeColor=#666666;fillColor=#f5f5f5;spacing=5;spacingTop=-20;whiteSpace=wrap;overflow=hidden;rounded=1;fontColor=#333333;" vertex="1" parent="1">
          <mxGeometry x="570" y="610" width="120" height="100" as="geometry" />
        </mxCell>
        <mxCell id="59Jmw2dpT3aq7HsNmHRe-93" style="edgeStyle=orthogonalEdgeStyle;rounded=0;orthogonalLoop=1;jettySize=auto;html=1;exitX=0;exitY=0.5;exitDx=0;exitDy=0;entryX=1;entryY=0.5;entryDx=0;entryDy=0;" edge="1" parent="1" source="59Jmw2dpT3aq7HsNmHRe-94" target="59Jmw2dpT3aq7HsNmHRe-117">
          <mxGeometry relative="1" as="geometry" />
        </mxCell>
        <mxCell id="NkByPIN7X-YJsqj7LBNm-9" value="" style="edgeStyle=orthogonalEdgeStyle;rounded=0;orthogonalLoop=1;jettySize=auto;html=1;" edge="1" parent="1" source="59Jmw2dpT3aq7HsNmHRe-94" target="59Jmw2dpT3aq7HsNmHRe-122">
          <mxGeometry relative="1" as="geometry" />
        </mxCell>
        <mxCell id="59Jmw2dpT3aq7HsNmHRe-94" value="&lt;span style=&quot;font-size: 16px;&quot; id=&quot;docs-internal-guid-3ccb9f6a-7fff-7f46-d8be-888557d7b7c7&quot;&gt;&lt;div style=&quot;border-color: var(--border-color);&quot;&gt;&lt;div style=&quot;border-color: var(--border-color);&quot;&gt;Object of Testing&lt;/div&gt;&lt;/div&gt;&lt;/span&gt;" style="rounded=1;whiteSpace=wrap;html=1;fillColor=#dae8fc;strokeColor=#6c8ebf;fontStyle=1;strokeWidth=2;" vertex="1" parent="1">
          <mxGeometry x="-93" y="60" width="111.5" height="50" as="geometry" />
        </mxCell>
        <mxCell id="59Jmw2dpT3aq7HsNmHRe-95" style="edgeStyle=orthogonalEdgeStyle;rounded=1;orthogonalLoop=1;jettySize=auto;html=1;exitX=0.5;exitY=1;exitDx=0;exitDy=0;entryX=0;entryY=0.5;entryDx=0;entryDy=0;" edge="1" parent="1" target="59Jmw2dpT3aq7HsNmHRe-98">
          <mxGeometry relative="1" as="geometry">
            <mxPoint x="110" y="135" as="sourcePoint" />
            <Array as="points">
              <mxPoint x="110" y="480" />
            </Array>
          </mxGeometry>
        </mxCell>
        <mxCell id="59Jmw2dpT3aq7HsNmHRe-96" style="edgeStyle=orthogonalEdgeStyle;rounded=1;orthogonalLoop=1;jettySize=auto;html=1;exitX=0.11;exitY=1;exitDx=0;exitDy=0;entryX=1;entryY=0.5;entryDx=0;entryDy=0;exitPerimeter=0;" edge="1" parent="1" source="59Jmw2dpT3aq7HsNmHRe-122" target="59Jmw2dpT3aq7HsNmHRe-126">
          <mxGeometry relative="1" as="geometry">
            <mxPoint x="48.79999999999973" y="126.19999999999982" as="sourcePoint" />
            <mxPoint x="-140" y="330" as="targetPoint" />
            <Array as="points">
              <mxPoint x="80" y="135" />
              <mxPoint x="80" y="330" />
            </Array>
          </mxGeometry>
        </mxCell>
        <mxCell id="59Jmw2dpT3aq7HsNmHRe-97" value="&lt;h6&gt;&lt;span style=&quot;font-size: 12px;&quot;&gt;GUI Testing&lt;/span&gt;&lt;/h6&gt;&lt;h6&gt;&lt;span style=&quot;font-weight: normal;&quot;&gt;&lt;font style=&quot;font-size: 10px;&quot;&gt;Checks the appearance of the interface: fonts, colors, sizes of elements in accordance with the design.&lt;/font&gt;&lt;/span&gt;&lt;/h6&gt;" style="text;html=1;strokeColor=#666666;fillColor=#f5f5f5;spacing=5;spacingTop=-20;whiteSpace=wrap;overflow=hidden;rounded=1;fontColor=#333333;" vertex="1" parent="1">
          <mxGeometry x="245" y="280" width="155" height="100" as="geometry" />
        </mxCell>
        <mxCell id="59Jmw2dpT3aq7HsNmHRe-98" value="&lt;h6&gt;&lt;span style=&quot;font-size: 12px;&quot;&gt;Usability Testing&lt;/span&gt;&lt;/h6&gt;&lt;h6&gt;&lt;span style=&quot;font-weight: normal;&quot;&gt;&lt;font style=&quot;font-size: 10px;&quot;&gt;Checks the usability of the product and the pleasure of use.&lt;/font&gt;&lt;/span&gt;&lt;/h6&gt;" style="text;html=1;strokeColor=#666666;fillColor=#f5f5f5;spacing=5;spacingTop=-20;whiteSpace=wrap;overflow=hidden;rounded=1;fontColor=#333333;" vertex="1" parent="1">
          <mxGeometry x="247" y="430" width="153" height="100" as="geometry" />
        </mxCell>
        <mxCell id="59Jmw2dpT3aq7HsNmHRe-99" value="&lt;h6&gt;&lt;font style=&quot;font-size: 12px;&quot;&gt;Internationalization(l10n)&lt;/font&gt;&lt;/h6&gt;&lt;h6&gt;&lt;p style=&quot;&quot;&gt;&lt;span style=&quot;font-size: 10px; font-weight: 400;&quot;&gt;Checks the possibility of adapting the product to different languages&amp;nbsp; &amp;nbsp;and cultures without changing the code&lt;/span&gt;&lt;/p&gt;&lt;/h6&gt;" style="text;html=1;strokeColor=#666666;fillColor=#f5f5f5;spacing=5;spacingTop=-20;whiteSpace=wrap;overflow=hidden;rounded=1;fontColor=#333333;" vertex="1" parent="1">
          <mxGeometry x="245" y="35" width="155" height="100" as="geometry" />
        </mxCell>
        <mxCell id="59Jmw2dpT3aq7HsNmHRe-100" value="&lt;h6&gt;&lt;font style=&quot;font-size: 12px;&quot;&gt;Compatibility Testing&lt;/font&gt;&lt;/h6&gt;&lt;h6&gt;&lt;p&gt;&lt;span style=&quot;font-size: 10px; font-weight: 400;&quot;&gt;Checks stable operation on various devices, browsers, operating systems.&lt;/span&gt;&lt;/p&gt;&lt;/h6&gt;" style="text;html=1;strokeColor=#666666;fillColor=#f5f5f5;spacing=5;spacingTop=-20;whiteSpace=wrap;overflow=hidden;rounded=1;fontColor=#333333;" vertex="1" parent="1">
          <mxGeometry x="245" y="160" width="155" height="100" as="geometry" />
        </mxCell>
        <mxCell id="59Jmw2dpT3aq7HsNmHRe-101" value="&lt;h6&gt;&lt;font style=&quot;font-size: 12px;&quot;&gt;Localization(l10n)&lt;/font&gt;&lt;/h6&gt;&lt;p&gt;&lt;font style=&quot;font-size: 10px;&quot;&gt;Checks the correctness of translations, date formats, currencies for a particular region.&lt;/font&gt;&lt;/p&gt;" style="text;html=1;strokeColor=#666666;fillColor=#f5f5f5;spacing=5;spacingTop=-20;whiteSpace=wrap;overflow=hidden;rounded=1;fontColor=#333333;" vertex="1" parent="1">
          <mxGeometry x="245" y="-90" width="155" height="100" as="geometry" />
        </mxCell>
        <mxCell id="59Jmw2dpT3aq7HsNmHRe-102" value="&lt;h6&gt;&lt;span style=&quot;font-size: 12px;&quot;&gt;Spike Testing&lt;/span&gt;&lt;/h6&gt;&lt;p&gt;&lt;font style=&quot;font-size: 10px;&quot;&gt;Checks the response to a sudden sharp increase in the load on the system.&lt;/font&gt;&lt;/p&gt;" style="text;html=1;strokeColor=#666666;fillColor=#f5f5f5;spacing=5;spacingTop=-20;whiteSpace=wrap;overflow=hidden;rounded=1;fontColor=#333333;" vertex="1" parent="1">
          <mxGeometry x="-93" y="430" width="143" height="100" as="geometry" />
        </mxCell>
        <mxCell id="59Jmw2dpT3aq7HsNmHRe-103" value="&lt;h6&gt;&lt;span style=&quot;font-size: 12px;&quot;&gt;Static Testing&lt;/span&gt;&lt;/h6&gt;&lt;p&gt;&lt;font style=&quot;font-size: 10px;&quot;&gt;Analysis of code, documentation, requirements without program execution&amp;nbsp;&lt;/font&gt;&lt;/p&gt;" style="text;html=1;strokeColor=#666666;fillColor=#f5f5f5;spacing=5;spacingTop=-20;whiteSpace=wrap;overflow=hidden;rounded=1;fontColor=#333333;" vertex="1" parent="1">
          <mxGeometry x="-130" y="990" width="157" height="100" as="geometry" />
        </mxCell>
        <mxCell id="59Jmw2dpT3aq7HsNmHRe-104" value="&lt;h6&gt;&lt;span style=&quot;font-size: 12px;&quot;&gt;Dynamic Testing&lt;/span&gt;&lt;/h6&gt;&lt;p&gt;&lt;font style=&quot;font-size: 10px;&quot;&gt;Checking the behaviour of the system during its operation. Running tests on the completed product.&lt;/font&gt;&lt;/p&gt;" style="text;html=1;strokeColor=#666666;fillColor=#f5f5f5;spacing=5;spacingTop=-20;whiteSpace=wrap;overflow=hidden;rounded=1;fontColor=#333333;" vertex="1" parent="1">
          <mxGeometry x="247" y="990" width="153" height="100" as="geometry" />
        </mxCell>
        <mxCell id="59Jmw2dpT3aq7HsNmHRe-105" style="edgeStyle=orthogonalEdgeStyle;rounded=0;orthogonalLoop=1;jettySize=auto;html=1;exitX=0;exitY=0.5;exitDx=0;exitDy=0;entryX=1;entryY=0.5;entryDx=0;entryDy=0;" edge="1" parent="1" source="59Jmw2dpT3aq7HsNmHRe-106" target="59Jmw2dpT3aq7HsNmHRe-103">
          <mxGeometry relative="1" as="geometry" />
        </mxCell>
        <mxCell id="59Jmw2dpT3aq7HsNmHRe-106" value="&lt;span id=&quot;docs-internal-guid-3ccb9f6a-7fff-7f46-d8be-888557d7b7c7&quot;&gt;&lt;div style=&quot;border-color: var(--border-color);&quot;&gt;Code execution status&lt;/div&gt;&lt;/span&gt;" style="rounded=1;whiteSpace=wrap;html=1;fillColor=#dae8fc;strokeColor=#6c8ebf;fontStyle=1;strokeWidth=2;" vertex="1" parent="1">
          <mxGeometry x="87" y="1020" width="110" height="40" as="geometry" />
        </mxCell>
        <mxCell id="59Jmw2dpT3aq7HsNmHRe-107" style="edgeStyle=orthogonalEdgeStyle;rounded=0;orthogonalLoop=1;jettySize=auto;html=1;exitX=1;exitY=0.5;exitDx=0;exitDy=0;entryX=0;entryY=0.5;entryDx=0;entryDy=0;" edge="1" parent="1" source="59Jmw2dpT3aq7HsNmHRe-109" target="59Jmw2dpT3aq7HsNmHRe-110">
          <mxGeometry relative="1" as="geometry" />
        </mxCell>
        <mxCell id="59Jmw2dpT3aq7HsNmHRe-108" style="edgeStyle=orthogonalEdgeStyle;rounded=0;orthogonalLoop=1;jettySize=auto;html=1;exitX=0;exitY=0.5;exitDx=0;exitDy=0;entryX=1;entryY=0.5;entryDx=0;entryDy=0;" edge="1" parent="1" source="59Jmw2dpT3aq7HsNmHRe-109" target="59Jmw2dpT3aq7HsNmHRe-111">
          <mxGeometry relative="1" as="geometry" />
        </mxCell>
        <mxCell id="59Jmw2dpT3aq7HsNmHRe-109" value="&lt;span id=&quot;docs-internal-guid-3ccb9f6a-7fff-7f46-d8be-888557d7b7c7&quot;&gt;&lt;div style=&quot;border-color: var(--border-color);&quot;&gt;&lt;div style=&quot;border-color: var(--border-color);&quot;&gt;&lt;div style=&quot;border-color: var(--border-color);&quot;&gt;Basis of Scenarios&lt;/div&gt;&lt;/div&gt;&lt;/div&gt;&lt;/span&gt;" style="rounded=1;whiteSpace=wrap;html=1;fillColor=#dae8fc;strokeColor=#6c8ebf;fontStyle=1;strokeWidth=2;" vertex="1" parent="1">
          <mxGeometry x="82" y="900" width="110" height="40" as="geometry" />
        </mxCell>
        <mxCell id="59Jmw2dpT3aq7HsNmHRe-110" value="&lt;h6&gt;&lt;span style=&quot;font-size: 12px&quot;&gt;Negative Testing&lt;/span&gt;&lt;/h6&gt;&lt;p&gt;&lt;font style=&quot;font-size: 10px;&quot;&gt;Testing the system with &lt;span style=&quot;&quot; data-end=&quot;715&quot; data-start=&quot;684&quot;&gt;invalid or unexpected input&lt;/span&gt;, or incorrect usage.&lt;/font&gt;&lt;/p&gt;" style="text;html=1;strokeColor=#666666;fillColor=#f5f5f5;spacing=5;spacingTop=-20;whiteSpace=wrap;overflow=hidden;rounded=1;fontColor=#333333;" vertex="1" parent="1">
          <mxGeometry x="247" y="870" width="153" height="100" as="geometry" />
        </mxCell>
        <mxCell id="59Jmw2dpT3aq7HsNmHRe-111" value="&lt;h6&gt;&lt;span style=&quot;font-size: 12px;&quot;&gt;Positive Testing&lt;/span&gt;&lt;/h6&gt;&lt;p&gt;&lt;font style=&quot;font-size: 10px;&quot;&gt;Testing the system &lt;span style=&quot;&quot; data-end=&quot;426&quot; data-start=&quot;396&quot;&gt;with expected, valid input&lt;/span&gt; and correct user behavior.&lt;/font&gt;&lt;/p&gt;" style="text;html=1;strokeColor=#666666;fillColor=#f5f5f5;spacing=5;spacingTop=-20;whiteSpace=wrap;overflow=hidden;rounded=1;fontColor=#333333;" vertex="1" parent="1">
          <mxGeometry x="-130" y="870" width="157" height="100" as="geometry" />
        </mxCell>
        <mxCell id="59Jmw2dpT3aq7HsNmHRe-112" style="edgeStyle=orthogonalEdgeStyle;rounded=0;orthogonalLoop=1;jettySize=auto;html=1;exitX=0;exitY=0.5;exitDx=0;exitDy=0;entryX=1;entryY=0.5;entryDx=0;entryDy=0;" edge="1" parent="1" source="59Jmw2dpT3aq7HsNmHRe-114" target="59Jmw2dpT3aq7HsNmHRe-116">
          <mxGeometry relative="1" as="geometry" />
        </mxCell>
        <mxCell id="59Jmw2dpT3aq7HsNmHRe-113" style="edgeStyle=orthogonalEdgeStyle;rounded=0;orthogonalLoop=1;jettySize=auto;html=1;exitX=1;exitY=0.5;exitDx=0;exitDy=0;entryX=0;entryY=0.5;entryDx=0;entryDy=0;" edge="1" parent="1" source="59Jmw2dpT3aq7HsNmHRe-114" target="59Jmw2dpT3aq7HsNmHRe-115">
          <mxGeometry relative="1" as="geometry" />
        </mxCell>
        <mxCell id="59Jmw2dpT3aq7HsNmHRe-114" value="&lt;span id=&quot;docs-internal-guid-3ccb9f6a-7fff-7f46-d8be-888557d7b7c7&quot;&gt;&lt;div style=&quot;border-color: var(--border-color);&quot;&gt;&lt;div style=&quot;border-color: var(--border-color);&quot;&gt;&lt;div style=&quot;border-color: var(--border-color);&quot;&gt;Degree of Automation&lt;br&gt;&lt;/div&gt;&lt;/div&gt;&lt;/div&gt;&lt;/span&gt;" style="rounded=1;whiteSpace=wrap;html=1;fillColor=#dae8fc;strokeColor=#6c8ebf;fontStyle=1;strokeWidth=2;" vertex="1" parent="1">
          <mxGeometry x="82" y="780" width="110" height="40" as="geometry" />
        </mxCell>
        <mxCell id="59Jmw2dpT3aq7HsNmHRe-115" value="&lt;h6&gt;&lt;span style=&quot;font-size: 12px;&quot;&gt;Manual Testing&lt;/span&gt;&lt;/h6&gt;&lt;p&gt;&lt;font style=&quot;font-size: 10px;&quot;&gt;process where testers &lt;span style=&quot;&quot; data-end=&quot;185&quot; data-start=&quot;154&quot;&gt;manually execute test cases&lt;/span&gt; without using automation tools.&lt;br data-end=&quot;220&quot; data-start=&quot;217&quot;&gt;&lt;br&gt;&lt;/font&gt;&lt;/p&gt;" style="text;html=1;strokeColor=#666666;fillColor=#f5f5f5;spacing=5;spacingTop=-20;whiteSpace=wrap;overflow=hidden;rounded=1;fontColor=#333333;" vertex="1" parent="1">
          <mxGeometry x="247" y="750" width="153" height="100" as="geometry" />
        </mxCell>
        <mxCell id="59Jmw2dpT3aq7HsNmHRe-116" value="&lt;h6&gt;&lt;span style=&quot;font-size: 12px;&quot;&gt;Automation Testing&lt;/span&gt;&lt;/h6&gt;&lt;p&gt;&lt;font style=&quot;font-size: 10px;&quot;&gt;process of using &lt;span style=&quot;&quot; data-end=&quot;517&quot; data-start=&quot;496&quot;&gt;scripts and tools&lt;/span&gt; to automatically execute test cases.&lt;/font&gt;&lt;/p&gt;" style="text;html=1;strokeColor=#666666;fillColor=#f5f5f5;spacing=5;spacingTop=-20;whiteSpace=wrap;overflow=hidden;rounded=1;fontColor=#333333;" vertex="1" parent="1">
          <mxGeometry x="-130" y="750" width="157" height="100" as="geometry" />
        </mxCell>
        <mxCell id="59Jmw2dpT3aq7HsNmHRe-117" value="&lt;h6&gt;&lt;font style=&quot;font-size: 12px&quot;&gt;Functional&lt;/font&gt;&lt;/h6&gt;&lt;p&gt;&lt;span style=&quot;font-size: 10px;&quot;&gt;considers the system’s external behaviour to make sure it meets the requirements&lt;/span&gt;&lt;/p&gt;" style="text;html=1;strokeColor=#666666;fillColor=#f5f5f5;spacing=5;spacingTop=-20;whiteSpace=wrap;overflow=hidden;rounded=1;fontColor=#333333;" vertex="1" parent="1">
          <mxGeometry x="-320" y="35" width="140" height="100" as="geometry" />
        </mxCell>
        <mxCell id="59Jmw2dpT3aq7HsNmHRe-118" style="edgeStyle=orthogonalEdgeStyle;rounded=1;orthogonalLoop=1;jettySize=auto;html=1;exitX=0.75;exitY=0;exitDx=0;exitDy=0;entryX=0;entryY=0.5;entryDx=0;entryDy=0;" edge="1" parent="1" source="59Jmw2dpT3aq7HsNmHRe-122" target="59Jmw2dpT3aq7HsNmHRe-101">
          <mxGeometry relative="1" as="geometry" />
        </mxCell>
        <mxCell id="59Jmw2dpT3aq7HsNmHRe-119" style="edgeStyle=orthogonalEdgeStyle;rounded=0;orthogonalLoop=1;jettySize=auto;html=1;exitX=1;exitY=0.5;exitDx=0;exitDy=0;entryX=0;entryY=0.5;entryDx=0;entryDy=0;" edge="1" parent="1" source="59Jmw2dpT3aq7HsNmHRe-122" target="59Jmw2dpT3aq7HsNmHRe-99">
          <mxGeometry relative="1" as="geometry" />
        </mxCell>
        <mxCell id="59Jmw2dpT3aq7HsNmHRe-120" style="edgeStyle=orthogonalEdgeStyle;rounded=1;orthogonalLoop=1;jettySize=auto;html=1;exitX=1;exitY=0.75;exitDx=0;exitDy=0;entryX=0;entryY=0.5;entryDx=0;entryDy=0;" edge="1" parent="1" source="59Jmw2dpT3aq7HsNmHRe-122" target="59Jmw2dpT3aq7HsNmHRe-100">
          <mxGeometry relative="1" as="geometry" />
        </mxCell>
        <mxCell id="59Jmw2dpT3aq7HsNmHRe-121" style="edgeStyle=orthogonalEdgeStyle;rounded=1;orthogonalLoop=1;jettySize=auto;html=1;exitX=0.75;exitY=1;exitDx=0;exitDy=0;entryX=0;entryY=0.5;entryDx=0;entryDy=0;" edge="1" parent="1" source="59Jmw2dpT3aq7HsNmHRe-122" target="59Jmw2dpT3aq7HsNmHRe-97">
          <mxGeometry relative="1" as="geometry" />
        </mxCell>
        <mxCell id="NkByPIN7X-YJsqj7LBNm-5" value="" style="edgeStyle=orthogonalEdgeStyle;rounded=0;orthogonalLoop=1;jettySize=auto;html=1;" edge="1" parent="1" source="59Jmw2dpT3aq7HsNmHRe-122" target="NkByPIN7X-YJsqj7LBNm-4">
          <mxGeometry relative="1" as="geometry">
            <Array as="points">
              <mxPoint x="140" y="-170" />
            </Array>
          </mxGeometry>
        </mxCell>
        <mxCell id="59Jmw2dpT3aq7HsNmHRe-122" value="&lt;h6&gt;&lt;font style=&quot;font-size: 12px&quot;&gt;Non-Functional&lt;/font&gt;&lt;/h6&gt;&lt;p&gt;&lt;span style=&quot;font-size: 10px;&quot;&gt;checks how the system works, not what it does. Defines characteristics that we can measure&lt;/span&gt;&lt;/p&gt;" style="text;html=1;strokeColor=#666666;fillColor=#f5f5f5;spacing=5;spacingTop=-20;whiteSpace=wrap;overflow=hidden;rounded=1;fontColor=#333333;strokeWidth=2;" vertex="1" parent="1">
          <mxGeometry x="60" y="30" width="140" height="110" as="geometry" />
        </mxCell>
        <mxCell id="59Jmw2dpT3aq7HsNmHRe-123" style="edgeStyle=orthogonalEdgeStyle;rounded=0;orthogonalLoop=1;jettySize=auto;html=1;exitX=0.5;exitY=1;exitDx=0;exitDy=0;" edge="1" parent="1" source="59Jmw2dpT3aq7HsNmHRe-126" target="59Jmw2dpT3aq7HsNmHRe-102">
          <mxGeometry relative="1" as="geometry" />
        </mxCell>
        <mxCell id="59Jmw2dpT3aq7HsNmHRe-124" style="edgeStyle=orthogonalEdgeStyle;rounded=1;orthogonalLoop=1;jettySize=auto;html=1;exitX=0;exitY=0.75;exitDx=0;exitDy=0;entryX=1;entryY=0.5;entryDx=0;entryDy=0;" edge="1" parent="1" source="59Jmw2dpT3aq7HsNmHRe-126" target="59Jmw2dpT3aq7HsNmHRe-130">
          <mxGeometry relative="1" as="geometry" />
        </mxCell>
        <mxCell id="59Jmw2dpT3aq7HsNmHRe-125" style="edgeStyle=orthogonalEdgeStyle;rounded=0;orthogonalLoop=1;jettySize=auto;html=1;exitX=0;exitY=0.5;exitDx=0;exitDy=0;entryX=1;entryY=0.5;entryDx=0;entryDy=0;" edge="1" parent="1" source="59Jmw2dpT3aq7HsNmHRe-126" target="59Jmw2dpT3aq7HsNmHRe-127">
          <mxGeometry relative="1" as="geometry" />
        </mxCell>
        <mxCell id="59Jmw2dpT3aq7HsNmHRe-126" value="&lt;h6&gt;&lt;span style=&quot;font-size: 12px;&quot;&gt;Performance&lt;/span&gt;&lt;/h6&gt;&lt;p&gt;&lt;span style=&quot;font-size: 10px;&quot;&gt;Checks the stability of the system operation at a certain load.&lt;/span&gt;&lt;/p&gt;" style="text;html=1;strokeColor=#666666;fillColor=#f5f5f5;spacing=5;spacingTop=-20;whiteSpace=wrap;overflow=hidden;rounded=1;fontColor=#333333;strokeWidth=2;" vertex="1" parent="1">
          <mxGeometry x="-93" y="280" width="120" height="100" as="geometry" />
        </mxCell>
        <mxCell id="59Jmw2dpT3aq7HsNmHRe-127" value="&lt;h6&gt;&lt;span style=&quot;font-size: 12px;&quot;&gt;Stress Testing&lt;/span&gt;&lt;/h6&gt;&lt;p&gt;&lt;font style=&quot;font-size: 10px;&quot;&gt;Evaluate system behavior under excessive load conditions that exceed standard indicators.&lt;/font&gt;&lt;/p&gt;" style="text;html=1;strokeColor=#666666;fillColor=#f5f5f5;spacing=5;spacingTop=-20;whiteSpace=wrap;overflow=hidden;rounded=1;fontColor=#333333;" vertex="1" parent="1">
          <mxGeometry x="-320" y="280" width="140" height="100" as="geometry" />
        </mxCell>
        <mxCell id="59Jmw2dpT3aq7HsNmHRe-128" value="&lt;h6&gt;&lt;span style=&quot;font-size: 12px;&quot;&gt;Load Testing&lt;/span&gt;&lt;/h6&gt;&lt;p&gt;&lt;font style=&quot;font-size: 10px;&quot;&gt;Checks how the system operates under the anticipated load.&lt;/font&gt;&lt;/p&gt;" style="text;html=1;strokeColor=#666666;fillColor=#f5f5f5;spacing=5;spacingTop=-20;whiteSpace=wrap;overflow=hidden;rounded=1;fontColor=#333333;" vertex="1" parent="1">
          <mxGeometry x="-320" y="150" width="140" height="100" as="geometry" />
        </mxCell>
        <mxCell id="59Jmw2dpT3aq7HsNmHRe-129" style="edgeStyle=orthogonalEdgeStyle;rounded=1;orthogonalLoop=1;jettySize=auto;html=1;entryX=1.008;entryY=0.41;entryDx=0;entryDy=0;entryPerimeter=0;exitX=0.5;exitY=0;exitDx=0;exitDy=0;" edge="1" parent="1" source="59Jmw2dpT3aq7HsNmHRe-126" target="59Jmw2dpT3aq7HsNmHRe-128">
          <mxGeometry relative="1" as="geometry">
            <Array as="points">
              <mxPoint x="-33" y="191" />
            </Array>
          </mxGeometry>
        </mxCell>
        <mxCell id="59Jmw2dpT3aq7HsNmHRe-130" value="&lt;h6&gt;&lt;span style=&quot;font-size: 12px;&quot;&gt;Volume Testing&lt;/span&gt;&lt;/h6&gt;&lt;p&gt;&lt;font style=&quot;font-size: 10px;&quot;&gt;System load in order to find the maximum possible load, after which the system stops working.&lt;/font&gt;&lt;/p&gt;" style="text;html=1;strokeColor=#666666;fillColor=#f5f5f5;spacing=5;spacingTop=-20;whiteSpace=wrap;overflow=hidden;rounded=1;fontColor=#333333;" vertex="1" parent="1">
          <mxGeometry x="-320" y="430" width="140" height="100" as="geometry" />
        </mxCell>
        <mxCell id="08E62hEeD5wUEni3Y4Yq-1" value="" style="edgeStyle=orthogonalEdgeStyle;rounded=0;orthogonalLoop=1;jettySize=auto;html=1;" edge="1" parent="1">
          <mxGeometry relative="1" as="geometry">
            <mxPoint x="197" y="1160" as="sourcePoint" />
            <mxPoint x="247" y="1160" as="targetPoint" />
          </mxGeometry>
        </mxCell>
        <mxCell id="08E62hEeD5wUEni3Y4Yq-2" value="&lt;h6&gt;&lt;span style=&quot;font-size: 12px;&quot;&gt;Exploratory Testing&lt;/span&gt;&lt;/h6&gt;&lt;p&gt;&lt;font style=&quot;font-size: 10px;&quot;&gt;Testing without clear scenarios: planning, execution and research at the same time.&lt;/font&gt;&lt;/p&gt;" style="text;html=1;strokeColor=#666666;fillColor=#f5f5f5;spacing=5;spacingTop=-20;whiteSpace=wrap;overflow=hidden;rounded=1;fontColor=#333333;" vertex="1" parent="1">
          <mxGeometry x="-130" y="1110" width="157" height="100" as="geometry" />
        </mxCell>
        <mxCell id="08E62hEeD5wUEni3Y4Yq-3" value="&lt;h6&gt;&lt;span style=&quot;font-size: 12px;&quot;&gt;Ad-Hoc&lt;/span&gt;&lt;/h6&gt;&lt;p&gt;&lt;font style=&quot;font-size: 10px;&quot;&gt;&lt;span style=&quot;&quot; data-end=&quot;381&quot; data-start=&quot;357&quot;&gt;Unstructured testing&lt;/span&gt; performed without documentation, planning, or deep knowledge of the product.&lt;/font&gt;&lt;/p&gt;" style="text;html=1;strokeColor=#666666;fillColor=#f5f5f5;spacing=5;spacingTop=-20;whiteSpace=wrap;overflow=hidden;rounded=1;fontColor=#333333;" vertex="1" parent="1">
          <mxGeometry x="247" y="1110" width="163" height="100" as="geometry" />
        </mxCell>
        <mxCell id="08E62hEeD5wUEni3Y4Yq-4" style="edgeStyle=orthogonalEdgeStyle;rounded=0;orthogonalLoop=1;jettySize=auto;html=1;exitX=0;exitY=0.5;exitDx=0;exitDy=0;entryX=1;entryY=0.5;entryDx=0;entryDy=0;" edge="1" parent="1" source="08E62hEeD5wUEni3Y4Yq-5" target="08E62hEeD5wUEni3Y4Yq-2">
          <mxGeometry relative="1" as="geometry" />
        </mxCell>
        <mxCell id="08E62hEeD5wUEni3Y4Yq-8" style="edgeStyle=orthogonalEdgeStyle;rounded=1;orthogonalLoop=1;jettySize=auto;html=1;exitX=0.25;exitY=1;exitDx=0;exitDy=0;entryX=1;entryY=0.5;entryDx=0;entryDy=0;curved=0;" edge="1" parent="1" source="08E62hEeD5wUEni3Y4Yq-5" target="08E62hEeD5wUEni3Y4Yq-7">
          <mxGeometry relative="1" as="geometry" />
        </mxCell>
        <mxCell id="08E62hEeD5wUEni3Y4Yq-9" style="edgeStyle=orthogonalEdgeStyle;rounded=1;orthogonalLoop=1;jettySize=auto;html=1;exitX=0.75;exitY=1;exitDx=0;exitDy=0;entryX=0;entryY=0.5;entryDx=0;entryDy=0;curved=0;" edge="1" parent="1" source="08E62hEeD5wUEni3Y4Yq-5" target="08E62hEeD5wUEni3Y4Yq-6">
          <mxGeometry relative="1" as="geometry" />
        </mxCell>
        <mxCell id="08E62hEeD5wUEni3Y4Yq-5" value="&lt;span id=&quot;docs-internal-guid-3ccb9f6a-7fff-7f46-d8be-888557d7b7c7&quot;&gt;&lt;div style=&quot;border-color: var(--border-color);&quot;&gt;Level of Preparation&lt;/div&gt;&lt;/span&gt;" style="rounded=1;whiteSpace=wrap;html=1;fillColor=#dae8fc;strokeColor=#6c8ebf;fontStyle=1;strokeWidth=2;" vertex="1" parent="1">
          <mxGeometry x="87" y="1140" width="110" height="40" as="geometry" />
        </mxCell>
        <mxCell id="08E62hEeD5wUEni3Y4Yq-6" value="&lt;h6&gt;&lt;span style=&quot;font-size: 12px;&quot;&gt;Monkey Testing&lt;/span&gt;&lt;/h6&gt;&lt;p&gt;&lt;font style=&quot;font-size: 10px;&quot;&gt;Simulates chaotic, unpredictable user behavior.&lt;/font&gt;&lt;/p&gt;" style="text;html=1;strokeColor=#666666;fillColor=#f5f5f5;spacing=5;spacingTop=-20;whiteSpace=wrap;overflow=hidden;rounded=1;fontColor=#333333;" vertex="1" parent="1">
          <mxGeometry x="247" y="1230" width="163" height="100" as="geometry" />
        </mxCell>
        <mxCell id="08E62hEeD5wUEni3Y4Yq-7" value="&lt;h6&gt;&lt;font style=&quot;font-size: 12px;&quot;&gt;Test Case-Based Testing&lt;/font&gt;&lt;/h6&gt;&lt;p&gt;&lt;font style=&quot;font-size: 10px;&quot;&gt;Testing based on predefined test cases and documentation.&lt;/font&gt;&lt;/p&gt;&lt;div&gt;&lt;br&gt;&lt;/div&gt;" style="text;html=1;strokeColor=#666666;fillColor=#f5f5f5;spacing=5;spacingTop=-20;whiteSpace=wrap;overflow=hidden;rounded=1;fontColor=#333333;" vertex="1" parent="1">
          <mxGeometry x="-130" y="1230" width="157" height="100" as="geometry" />
        </mxCell>
        <mxCell id="NkByPIN7X-YJsqj7LBNm-4" value="&lt;h6&gt;&lt;span style=&quot;font-size: 12px;&quot;&gt;Security Testing&lt;/span&gt;&lt;/h6&gt;&lt;p&gt;&lt;span style=&quot;font-size: 10px;&quot;&gt;System security check against attacks: XSS, SQL Injection, CORS and other vulnerabilities.&lt;/span&gt;&lt;/p&gt;" style="whiteSpace=wrap;html=1;align=left;verticalAlign=top;fillColor=#f5f5f5;strokeColor=#666666;fontColor=#333333;gradientColor=none;spacing=5;spacingTop=-20;rounded=1;strokeWidth=2;" vertex="1" parent="1">
          <mxGeometry x="240" y="-210" width="160" height="90" as="geometry" />
        </mxCell>
        <mxCell id="NkByPIN7X-YJsqj7LBNm-10" value="&lt;h6&gt;&lt;span style=&quot;font-size: 12px;&quot;&gt;Alpha testing&lt;/span&gt;&lt;/h6&gt;&lt;p&gt;&lt;font style=&quot;font-size: 10px;&quot;&gt;Internal testing done by the &lt;span style=&quot;&quot; data-end=&quot;177&quot; data-start=&quot;151&quot;&gt;development or QA team&lt;/span&gt; before releasing the product to real users.&lt;/font&gt;&lt;/p&gt;" style="whiteSpace=wrap;html=1;align=left;verticalAlign=top;fillColor=#f5f5f5;strokeColor=#666666;fontColor=#333333;gradientColor=none;spacing=5;spacingTop=-20;rounded=1;" vertex="1" parent="1">
          <mxGeometry x="790" y="330" width="160" height="110" as="geometry" />
        </mxCell>
        <mxCell id="NkByPIN7X-YJsqj7LBNm-15" value="&lt;h6&gt;&lt;span style=&quot;font-size: 12px;&quot;&gt;Alpha testing&lt;/span&gt;&lt;/h6&gt;&lt;p&gt;&lt;font style=&quot;font-size: 10px;&quot;&gt;Internal testing done by the &lt;span style=&quot;&quot; data-end=&quot;177&quot; data-start=&quot;151&quot;&gt;development or QA team&lt;/span&gt; before releasing the product to real users.&lt;/font&gt;&lt;/p&gt;" style="whiteSpace=wrap;html=1;align=left;verticalAlign=top;fillColor=#f5f5f5;strokeColor=#666666;fontColor=#333333;gradientColor=none;spacing=5;spacingTop=-20;rounded=1;" vertex="1" parent="1">
          <mxGeometry x="790" y="490" width="160" height="110" as="geometry" />
        </mxCell>
      </root>
    </mxGraphModel>
  </diagram>
</mxfile>
